<?xml version="1.0" standalone="no"?>
<!DOCTYPE svg PUBLIC "-//W3C//DTD SVG 20010904//EN"
 "http://www.w3.org/TR/2001/REC-SVG-20010904/DTD/svg10.dtd">
<svg version="1.0" xmlns="http://www.w3.org/2000/svg"
  viewBox="0 0 1500.000000 1500.000000"
 preserveAspectRatio="xMidYMid meet">
<metadata>
Created by potrace 1.10, written by Peter Selinger 2001-2011
</metadata>
<g transform="translate(0.000000,1500.000000) scale(0.100000,-0.100000)"
fill="#000000" stroke="none">
<path d="M1263 10663 c-10 -4 -13 -105 -13 -457 0 -249 3 -456 6 -459 13 -13
48 18 259 228 l216 215 717 0 c640 0 766 -4 736 -23 -25 -15 -261 -136 -339
-174 -49 -24 -97 -47 -105 -52 -13 -7 -15 -306 -18 -2576 -2 -2044 -5 -2572
-15 -2584 -7 -9 -20 -32 -29 -51 -9 -19 -53 -110 -97 -202 -45 -91 -81 -173
-81 -181 0 -8 7 -18 16 -21 20 -8 2328 -8 2348 0 9 3 16 15 16 26 0 17 -8 36
-41 98 -4 8 -46 92 -94 185 l-85 170 0 2556 c0 2422 -1 2557 -18 2571 -9 9
-78 46 -152 83 -203 100 -293 149 -294 160 -1 7 248 11 725 13 l726 2 224
-225 c199 -200 225 -223 237 -208 9 13 12 117 10 463 l-3 445 -2420 2 c-1331
1 -2426 -1 -2432 -4z"/>
<path d="M7010 10662 c0 -4 99 -107 221 -228 121 -120 226 -228 232 -239 8
-15 12 -702 14 -2665 2 -1455 0 -2665 -3 -2690 -6 -43 -16 -55 -230 -269 -123
-123 -224 -229 -224 -237 0 -12 319 -14 2154 -14 1376 0 2164 4 2180 10 l26
10 0 465 c0 256 -3 465 -7 465 -4 0 -111 -103 -238 -230 l-231 -230 -971 0
c-776 0 -973 3 -981 13 -8 10 45 68 224 246 l234 233 0 2432 0 2433 81 164
c44 90 95 193 112 229 18 36 35 67 40 68 4 2 7 12 7 23 0 19 -26 19 -1320 19
-726 0 -1320 -4 -1320 -8z"/>
</g>
</svg>
